<svg width="36" height="37" viewBox="0 0 36 37" fill="none" xmlns="http://www.w3.org/2000/svg">
<path d="M18.2323 15.4477V20.981C18.2323 21.5339 18.679 21.9818 19.2319 21.9811C21.1426 21.9786 25.2992 21.9735 27.2779 21.9735C25.8602 26.2104 23.6565 28.5172 18.2323 28.5172C12.7428 28.5172 8.45818 24.1286 8.45818 18.7144C8.45818 13.3016 12.7428 8.91301 18.2323 8.91301C21.1344 8.91301 23.009 9.91924 24.7283 11.3213C26.1043 9.96422 25.9894 9.77017 29.4907 6.5086C26.5181 3.84074 22.5678 2.21509 18.2323 2.21509C8.99212 2.21509 1.5 9.60182 1.5 18.7144C1.5 27.8271 8.99212 35.2151 18.2323 35.2151C32.0442 35.2151 35.4202 23.3549 34.3014 15.4477H18.2323Z" fill="#2DD3E3"/>
<mask id="mask0_279_4960" style="mask-type:alpha" maskUnits="userSpaceOnUse" x="1" y="2" width="34" height="34">
<path d="M18.2323 15.4477V20.981C18.2323 21.5339 18.679 21.9818 19.2319 21.9811C21.1426 21.9786 25.2992 21.9735 27.2779 21.9735C25.8602 26.2104 23.6565 28.5172 18.2323 28.5172C12.7428 28.5172 8.45818 24.1286 8.45818 18.7144C8.45818 13.3016 12.7428 8.91301 18.2323 8.91301C21.1344 8.91301 23.009 9.91924 24.7283 11.3213C26.1043 9.96422 25.9894 9.77017 29.4907 6.5086C26.5181 3.84074 22.5678 2.21509 18.2323 2.21509C8.99212 2.21509 1.5 9.60182 1.5 18.7144C1.5 27.8271 8.99212 35.2151 18.2323 35.2151C32.0442 35.2151 35.4202 23.3549 34.3014 15.4477H18.2323Z" fill="white"/>
</mask>
<g mask="url(#mask0_279_4960)">
</g>
</svg>



